<?xml version="1.0" encoding="utf-8"?>
<!-- Generator: Adobe Illustrator 27.0.0, SVG Export Plug-In . SVG Version: 6.00 Build 0)  -->
<svg version="1.1" id="Layer_1" xmlns="http://www.w3.org/2000/svg" xmlns:xlink="http://www.w3.org/1999/xlink" x="0px" y="0px"
	 viewBox="0 0 359.3 143.5" style="enable-background:new 0 0 359.3 143.5;" xml:space="preserve">
<style type="text/css">
	.st0{fill:#E59728;}
	.st1{fill:#172535;}
	.st2{fill:#DC1C73;}
	.st3{fill:#262726;}
	.st4{fill:none;stroke:#E59728;stroke-miterlimit:10;}
	.st5{fill:#0D1F2C;}
</style>
<path class="st1" d="M337.1,142.2l4.2-3.1c3.2-2.4,3.1-7.8,0.8-10.7c-2.9-3.9-8.3-11.1-14.4-19.4c8.5-11.8,11.7-25,14.3-34.5
	c1.3-5,2.4-9.5,3.8-11.1c2.4-2.8,6.2-6.5,9-9c2.8-2.7,4.5-6.2,4.5-10.2V30.7c0-4.1-2.8-7.5-6.7-8.3c-2.2-0.4-5.1-0.8-8-1.3h-0.1
	c-2.9-0.4-5.6-0.8-7.3-1c-6.1-1.3-13.1-4.2-20.4-7.3C302.5,6.7,286.3,0,265.7,0c-21.5,0-42,8.4-56.3,23.2l-0.1,0.1
	c-3.8,2.7-7,3.9-9.3,3.8c-1.3-0.1-4.1-0.5-6.7-1h-0.1c-4.8-0.8-10.4-1.7-13.4-1.7c-3.2,0-8.8,0.9-13.6,1.7c-2.7,0.5-5.6,0.9-6.7,1
	c-2.3,0.1-5.6-1.3-9.3-3.8l-0.1-0.1C135.7,8.4,115.2,0,93.7,0C73.1,0,57,6.9,42.7,12.9c-7.4,3.1-14.3,6.1-20.4,7.3
	c-1.7,0.4-4.3,0.6-7.3,1h-0.1c-2.8,0.4-5.9,0.8-8.1,1.3C2.8,23.2,0,26.6,0,30.7l0,13.6c0,3.8,1.7,7.6,4.5,10.2c2.7,2.5,6.5,6.1,9,9
	c1.3,1.5,2.5,6.4,3.8,11.1c5.3,21.1,15.2,60.5,76.4,62.6c19.5,0.8,38.1-5.9,52.3-18.7c13.8-12.3,22.3-29.5,22.9-47.1l0.1-0.4
	c0.5-7.1,5.3-12.7,10.8-12.7c5.6,0,10.3,5.6,10.8,12.7l0.1,0.5c0.8,17.6,9.3,34.6,22.9,47c14.3,12.7,32.8,19.4,52.3,18.7
	c20.1-0.8,36.5-5.7,48.8-14.8c6.2,8.8,10.7,15,13.2,18.3c1,1.5,2.7,2.4,4.5,2.7C333.9,143.7,335.6,143.2,337.1,142.2z M343.5,47.1
	c0,2.5-2,4.5-4.5,4.5c-2.5,0-4.5-2-4.5-4.5c0-2.5,2-4.5,4.5-4.5C341.5,42.5,343.5,44.6,343.5,47.1z M334.7,50.4L334.7,50.4
	L334.7,50.4L334.7,50.4z M343.5,33.4c0,2.5-2,4.5-4.5,4.5c-2.5,0-4.5-2-4.5-4.5c0-2.5,2-4.5,4.5-4.5
	C341.5,28.8,343.5,30.8,343.5,33.4z M93.3,15.5c16.9,0,32.7,6.2,44.1,17.2C112.5,31.4,84.5,30,54,28.5
	C64.9,20.2,78.7,15.5,93.3,15.5z M16,33.4c0-2.5,2-4.5,4.5-4.5c2.5,0,4.5,2,4.5,4.5c0,2.5-2,4.5-4.5,4.5S16,35.8,16,33.4z
	 M217.2,37.2c11.3-13.6,29-21.5,48.1-21.5c33,0,59.7,23.8,59.7,53c0,9.3-2.7,18.3-7.9,26.2c-11.8-16-20.4-27.9-23.6-32.6
	c-10.8-15.7-22-19.1-35.5-22C255.3,39.7,241.9,38.7,217.2,37.2z M16,47.1c0-2.5,2-4.5,4.5-4.5c2.5,0,4.5,2,4.5,4.5
	c0,2.5-2,4.5-4.5,4.5C18.1,51.7,16,49.7,16,47.1z M153,68.5c0,29.2-26.9,53-59.7,53s-59.7-23.8-59.7-53c0-5.1,0.8-10.2,2.4-14.9
	c39.5,1.4,84.4,1.9,115.3,2.3C152.5,60.1,153,64.3,153,68.5z M205.6,68.5c0-4.1,0.5-8.1,1.5-12.2c22.5,0.3,44.3,0.5,47.4,1
	c10.8,2.4,17.4,4.2,24.8,14.8c3.9,5.9,14.8,21.3,25.2,36.3c-10.8,8.3-24.7,13-39.2,13C232.5,121.6,205.6,97.8,205.6,68.5z"/>
</svg>
